<?xml version="1.0" encoding="UTF-8"?>
<svg xmlns="http://www.w3.org/2000/svg" version="1.1" viewBox="0 0 264 125">
  <defs>
    <style>
      .cls-1 {
        fill: #036;
      }

      .cls-2 {
        fill: #c4c4c4;
      }

      .cls-3 {
        fill: #fff;
      }

      .cls-4 {
        fill: #2990ea;
      }
    </style>
  </defs>
  <!-- Generator: Adobe Illustrator 28.7.2, SVG Export Plug-In . SVG Version: 1.2.0 Build 154)  -->
  <g>
    <g id="Layer_1">
      <g>
        <rect class="cls-3" x="0" width="125" height="125" rx="16" ry="16"/>
        <path class="cls-2" d="M109,1c8.3,0,15,6.7,15,15v93c0,8.3-6.7,15-15,15H16c-8.3,0-15-6.7-15-15V16c0-8.3,6.7-15,15-15h93M109,0H16C7.2,0,0,7.2,0,16v93c0,8.8,7.2,16,16,16h93c8.8,0,16-7.2,16-16V16c0-8.8-7.2-16-16-16h0Z"/>
      </g>
      <g>
        <path class="cls-1" d="M90.2,34.3c-11.1-15.4-32.5-18.9-47.8-7.8-11,7.9-16.3,21.6-13.6,34.8l34.5-15.3h-18.8c4.6-9.9,16.3-14.2,26.2-9.6,2.1,1,4,2.3,5.6,3.9l13.9-6h0Z"/>
        <polygon class="cls-4" points="97.2 32.6 62.8 67.7 19 67.7 97.2 32.6"/>
        <path class="cls-1" d="M62.2,74c-4.6,0-9.1-1.6-12.7-4.5h-18.4c8.8,17.2,30,24,47.2,15.2,6.8-3.5,12.4-9.2,15.7-16.1h-17.9c-3.8,3.5-8.7,5.5-13.9,5.5h0Z"/>
        <g>
          <path class="cls-1" d="M26.3,101.2h-3.1v2.4h3.5v1.2h-5v-8.3h4.9v1.2h-3.3v2.2h3.1v1.2h0Z"/>
          <path class="cls-1" d="M29.5,96.5v4.8c0,1.6.7,2.4,1.7,2.4s1.7-.8,1.7-2.4v-4.8h1.5v4.8c0,2.6-1.3,3.7-3.3,3.7s-3.2-1.1-3.2-3.7v-4.8h1.5s0,0,0,0Z"/>
          <path class="cls-1" d="M36.2,96.7c.8-.1,1.5-.2,2.3-.2,1.2,0,2,.2,2.6.7.5.4.7,1.1.7,1.7,0,.9-.6,1.8-1.5,2.1h0c.6.3,1,.8,1.2,1.7.2.8.4,1.6.7,2.3h-1.6c-.2-.6-.4-1.3-.6-2-.2-1.1-.6-1.4-1.5-1.5h-.8v3.4h-1.5v-8.2h0ZM37.7,100.3h.9c1,0,1.7-.5,1.7-1.4s-.6-1.3-1.6-1.3-.6,0-.9,0v2.6h0Z"/>
          <path class="cls-1" d="M46.6,105c-2.3,0-3.8-1.8-3.8-4.2s1.6-4.3,4-4.3,3.8,1.8,3.8,4.2-1.7,4.4-4,4.4h0ZM46.7,103.8c1.5,0,2.3-1.3,2.3-3.1s-.8-3-2.3-3-2.3,1.4-2.3,3.1.8,3,2.3,3h0Z"/>
          <path class="cls-1" d="M57.8,104.6c-.7.2-1.4.4-2.2.4-2.6,0-4.2-1.7-4.2-4.2s1.9-4.4,4.4-4.4c.7,0,1.4,0,2,.4l-.3,1.2c-.5-.2-1.1-.3-1.6-.3-1.7,0-2.9,1.1-2.9,3.1s1,3,2.9,3,1.1,0,1.7-.3l.2,1.2h0s0,0,0,0Z"/>
          <path class="cls-1" d="M62.2,105c-2.3,0-3.8-1.8-3.8-4.2s1.6-4.3,4-4.3,3.9,1.8,3.9,4.2-1.7,4.4-4,4.4h0ZM62.3,103.8c1.5,0,2.3-1.3,2.3-3.1s-.8-3-2.3-3-2.3,1.4-2.3,3.1.8,3,2.3,3h0Z"/>
          <path class="cls-1" d="M67.5,104.8v-8.3h1.7l2.2,3.6c.5.9,1,1.8,1.4,2.8h0c0-1.2-.2-2.3-.1-3.4v-2.9h1.4v8.3h-1.6l-2.2-3.7c-.5-.9-1.1-1.9-1.5-2.9h0c0,1.1,0,2.2,0,3.5v3h-1.4s0,0,0,0Z"/>
          <path class="cls-1" d="M77.4,97.8h-2.4v-1.2h6.3v1.2h-2.4v7.1h-1.5v-7.1h0Z"/>
          <path class="cls-1" d="M82.3,96.7c.8-.1,1.5-.2,2.3-.2,1.2,0,2,.2,2.6.7.5.4.7,1.1.7,1.7,0,.9-.6,1.8-1.5,2.1h0c.6.3,1,.8,1.2,1.7.2.8.4,1.6.6,2.3h-1.6c-.2-.6-.4-1.3-.6-2-.2-1.1-.6-1.4-1.5-1.5h-.8v3.4h-1.5v-8.2h0ZM83.8,100.3h.9c1,0,1.7-.5,1.7-1.4s-.6-1.3-1.6-1.3-.6,0-.9,0v2.6h0Z"/>
          <path class="cls-1" d="M92.7,105c-2.3,0-3.8-1.8-3.8-4.2s1.6-4.3,4-4.3,3.9,1.8,3.9,4.2c0,2.8-1.7,4.4-4,4.4h0ZM92.8,103.8c1.5,0,2.3-1.3,2.3-3.1s-.8-3-2.3-3-2.3,1.4-2.3,3.1.8,3,2.3,3h0Z"/>
          <path class="cls-1" d="M98,96.5h1.5v7h3.4v1.2h-4.9v-8.3h0Z"/>
        </g>
      </g>
    </g>
  </g>
</svg>