<?xml version="1.0" encoding="UTF-8"?>
<svg xmlns="http://www.w3.org/2000/svg" version="1.1" viewBox="0 0 62 62">
  <defs>
    <style>
      .cls-1 {
        fill: #036;
      }

      .cls-2 {
        fill: #c4c4c4;
      }

      .cls-3 {
        fill: #fff;
      }

      .cls-4 {
        fill: #2990ea;
      }
    </style>
  </defs>
  <!-- Generator: Adobe Illustrator 28.7.2, SVG Export Plug-In . SVG Version: 1.2.0 Build 154)  -->
  <g>
    <g id="Layer_1">
      <path class="cls-3" d="M13.6,33.3c1.4,0,2.5-1.1,2.5-2.5s-1.1-2.5-2.5-2.5-2.5,1.1-2.5,2.5,1.1,2.5,2.5,2.5Z"/>
      <path class="cls-3" d="M49,37.3h-.3c-.8,0-1.5-.6-1.5-1.5v-10.1c0-.8.6-1.5,1.5-1.5h.3c.8,0,1.5.6,1.5,1.5v10.2c0,.8-.6,1.4-1.5,1.4Z"/>
      <path class="cls-3" d="M42.4,43.9h-.3c-.8,0-1.5-.6-1.5-1.5v-23.3c0-.8.6-1.5,1.5-1.5h.3c.8,0,1.5.6,1.5,1.5v23.2c0,.8-.7,1.5-1.5,1.5Z"/>
      <path class="cls-3" d="M35.9,35.7h-.3c-.8,0-1.5-.6-1.5-1.5v-6.9c0-.8.6-1.5,1.5-1.5h.3c.8,0,1.5.6,1.5,1.5v6.9c0,.8-.6,1.5-1.5,1.5Z"/>
      <path class="cls-3" d="M17.7,31.1c.3,1.2,1,1.9,1.9,2.1.5,0,.9.4,1.1.9l6.4,15.5c.2.5.8.9,1.4.9h.8c.8,0,1.5-.6,1.5-1.5V12.6c0-.8-.6-1.5-1.5-1.5h-.8c-.6,0-1.1.3-1.4.9l-6.4,15.5c-.2.5-.6.8-1.1.9-.9.2-1.6.8-1.9,2.1,0,.2,0,.4,0,.6ZM23.1,30.2l3.1-7.6c.2-.6,1.2-.4,1.2.2v15.9c0,.7-1,.9-1.2.2l-3.1-7.6c-.1-.3-.1-.7,0-1.1Z"/>
      <g>
        <g>
          <rect class="cls-3" y="0" width="62" height="62" rx="7.9" ry="7.9"/>
          <path class="cls-2" d="M54.1.5c4.1,0,7.4,3.3,7.4,7.4v46.1c0,4.1-3.3,7.4-7.4,7.4H7.9c-4.1,0-7.4-3.3-7.4-7.4V7.9c0-4.1,3.3-7.4,7.4-7.4h46.1M54.1,0H7.9C3.6,0,0,3.6,0,7.9v46.1c0,4.4,3.6,7.9,7.9,7.9h46.1c4.4,0,7.9-3.6,7.9-7.9V7.9C62,3.6,58.4,0,54.1,0h0Z"/>
        </g>
        <g>
          <path class="cls-1" d="M44.7,17c-5.5-7.6-16.1-9.4-23.7-3.9-5.5,3.9-8.1,10.7-6.7,17.3l17.1-7.6h-9.3c2.3-4.9,8.1-7,13-4.8,1,.5,2,1.1,2.8,1.9l6.9-3h0Z"/>
          <polygon class="cls-4" points="48.2 16.2 31.1 33.6 9.4 33.6 48.2 16.2"/>
          <path class="cls-1" d="M30.8,36.7c-2.3,0-4.5-.8-6.3-2.2h-9.1c4.4,8.5,14.9,11.9,23.4,7.5,3.4-1.7,6.1-4.6,7.8-8h-8.9c-1.9,1.7-4.3,2.7-6.9,2.7h0Z"/>
          <g>
            <path class="cls-1" d="M13,50.2h-1.6v1.2h1.7v.6h-2.5v-4.1h2.4v.6h-1.6v1.1h1.6v.6h0Z"/>
            <path class="cls-1" d="M14.6,47.9v2.4c0,.8.3,1.2.8,1.2s.9-.4.9-1.2v-2.4h.7v2.4c0,1.3-.7,1.8-1.6,1.8s-1.6-.5-1.6-1.8v-2.4h.8s0,0,0,0Z"/>
            <path class="cls-1" d="M17.9,47.9c.4,0,.8,0,1.1,0,.6,0,1,0,1.3.3.2.2.4.5.4.8,0,.5-.3.9-.7,1h0c.3.1.5.4.6.8,0,.4.2.8.3,1.2h-.8c-.1-.3-.2-.6-.3-1-.1-.5-.3-.7-.7-.7h-.4v1.7h-.7v-4.1h0ZM18.7,49.8h.4c.5,0,.8-.3.8-.7s-.3-.7-.8-.7-.3,0-.5,0v1.3h0Z"/>
            <path class="cls-1" d="M23.1,52.1c-1.2,0-1.9-.9-1.9-2.1s.8-2.2,2-2.2,1.9.9,1.9,2.1-.8,2.2-2,2.2h0ZM23.1,51.5c.7,0,1.1-.7,1.1-1.5s-.4-1.5-1.1-1.5-1.1.7-1.1,1.5.4,1.5,1.1,1.5h0Z"/>
            <path class="cls-1" d="M28.7,51.9c-.3.1-.7.2-1.1.2-1.3,0-2.1-.8-2.1-2.1s1-2.2,2.2-2.2c.3,0,.7,0,1,.2v.6c-.4,0-.7-.2-1-.1-.8,0-1.4.5-1.4,1.5s.5,1.5,1.4,1.5.6,0,.8-.1v.6c.1,0,.1,0,.1,0h0Z"/>
            <path class="cls-1" d="M30.8,52.1c-1.2,0-1.9-.9-1.9-2.1s.8-2.2,2-2.2,1.9.9,1.9,2.1-.8,2.2-2,2.2h0ZM30.9,51.5c.7,0,1.1-.7,1.1-1.5s-.4-1.5-1.1-1.5-1.1.7-1.1,1.5.4,1.5,1.1,1.5h0Z"/>
            <path class="cls-1" d="M33.5,52v-4.1h.9l1.1,1.8c.3.4.5.9.7,1.4h0c0-.6,0-1.1,0-1.7v-1.4h.7v4.1h-.8l-1.1-1.8c-.3-.5-.5-.9-.7-1.4h0c0,.5,0,1.1,0,1.7v1.5h-.7s0,0,0,0Z"/>
            <path class="cls-1" d="M38.4,48.5h-1.2v-.6h3.1v.6h-1.2v3.5h-.7v-3.5h0Z"/>
            <path class="cls-1" d="M40.8,47.9c.4,0,.8,0,1.1,0,.6,0,1,0,1.3.3.2.2.4.5.4.8,0,.5-.3.9-.7,1h0c.3.1.5.4.6.8,0,.4.2.8.3,1.2h-.8c-.1-.3-.2-.6-.3-1-.1-.5-.3-.7-.7-.7h-.4v1.7h-.7v-4.1h0ZM41.5,49.8h.4c.5,0,.8-.3.8-.7s-.3-.7-.8-.7-.3,0-.5,0v1.3h0Z"/>
            <path class="cls-1" d="M46,52.1c-1.2,0-1.9-.9-1.9-2.1s.8-2.2,2-2.2,1.9.9,1.9,2.1c0,1.4-.8,2.2-2,2.2h0ZM46,51.5c.7,0,1.1-.7,1.1-1.5s-.4-1.5-1.1-1.5-1.1.7-1.1,1.5.4,1.5,1.1,1.5h0Z"/>
            <path class="cls-1" d="M48.6,47.9h.7v3.5h1.7v.6h-2.4v-4.1h0Z"/>
          </g>
        </g>
      </g>
    </g>
  </g>
</svg>